<svg xmlns="http://www.w3.org/2000/svg" xmlns:xlink="http://www.w3.org/1999/xlink" width="400" zoomAndPan="magnify" viewBox="0 0 300 89.999999" height="120" preserveAspectRatio="xMidYMid meet" version="1.0"><defs><g/></defs><g fill="#2f5e62" fill-opacity="1"><g transform="translate(5.260988, 77.249998)"><g><path d="M 23.65625 0.265625 L -0.609375 -60.375 L 14.53125 -60.375 L 30.4375 -17.28125 L 46.1875 -60.375 L 61.0625 -60.375 L 36.890625 0.265625 Z M 23.65625 0.265625 "/></g></g></g><g fill="#2f5e62" fill-opacity="1"><g transform="translate(65.799464, 77.249998)"><g><path d="M 5.078125 0 L 5.078125 -44.8125 L 18.234375 -44.8125 L 18.234375 0 Z M 11.53125 -50.21875 C 9.34375 -50.21875 7.488281 -50.847656 5.96875 -52.109375 C 4.457031 -53.378906 3.703125 -55.160156 3.703125 -57.453125 C 3.703125 -59.796875 4.457031 -61.597656 5.96875 -62.859375 C 7.488281 -64.128906 9.34375 -64.765625 11.53125 -64.765625 C 13.757812 -64.765625 15.644531 -64.144531 17.1875 -62.90625 C 18.738281 -61.675781 19.515625 -59.859375 19.515625 -57.453125 C 19.515625 -55.160156 18.738281 -53.378906 17.1875 -52.109375 C 15.644531 -50.847656 13.757812 -50.21875 11.53125 -50.21875 Z M 11.53125 -50.21875 "/></g></g></g><g fill="#2f5e62" fill-opacity="1"><g transform="translate(89.017351, 77.249998)"><g><path d="M 4.8125 0 L 4.8125 -44.8125 L 18.140625 -37.0625 C 19.578125 -39.695312 21.398438 -41.773438 23.609375 -43.296875 C 25.816406 -44.816406 28.492188 -45.578125 31.640625 -45.578125 C 31.984375 -45.578125 32.300781 -45.578125 32.59375 -45.578125 C 32.882812 -45.578125 33.144531 -45.550781 33.375 -45.5 L 33.375 -31.8125 C 33.144531 -31.925781 32.84375 -32 32.46875 -32.03125 C 32.09375 -32.0625 31.675781 -32.078125 31.21875 -32.078125 C 28.75 -32.078125 26.507812 -31.5625 24.5 -30.53125 C 22.5 -29.5 20.925781 -27.90625 19.78125 -25.75 C 18.632812 -23.601562 18.0625 -20.8125 18.0625 -17.375 L 18.0625 0 Z M 4.8125 0 "/></g></g></g><g fill="#2f5e62" fill-opacity="1"><g transform="translate(122.210307, 77.249998)"><g><path d="M 19 1.03125 C 16.132812 1.03125 13.453125 0.441406 10.953125 -0.734375 C 8.460938 -1.910156 6.457031 -3.597656 4.9375 -5.796875 C 3.425781 -8.003906 2.671875 -10.71875 2.671875 -13.9375 C 2.671875 -16.457031 3.140625 -18.617188 4.078125 -20.421875 C 5.023438 -22.234375 6.328125 -23.710938 7.984375 -24.859375 C 9.648438 -26.003906 11.585938 -26.863281 13.796875 -27.4375 C 16.003906 -28.007812 18.367188 -28.296875 20.890625 -28.296875 C 23.191406 -28.296875 25.375 -28.09375 27.4375 -27.6875 C 29.5 -27.289062 31.273438 -26.773438 32.765625 -26.140625 L 32.765625 -27.171875 C 32.765625 -30.035156 31.757812 -32.097656 29.75 -33.359375 C 27.75 -34.628906 24.851562 -35.265625 21.0625 -35.265625 C 18.601562 -35.265625 16.164062 -35.019531 13.75 -34.53125 C 11.34375 -34.039062 8.851562 -33.222656 6.28125 -32.078125 L 6.28125 -41.96875 C 8.738281 -43 11.398438 -43.859375 14.265625 -44.546875 C 17.140625 -45.234375 20.382812 -45.578125 24 -45.578125 C 28.695312 -45.578125 32.664062 -44.875 35.90625 -43.46875 C 39.144531 -42.0625 41.59375 -39.953125 43.25 -37.140625 C 44.914062 -34.335938 45.75 -30.84375 45.75 -26.65625 L 45.75 0.6875 L 32.6875 -4.640625 C 30.957031 -2.867188 29.003906 -1.476562 26.828125 -0.46875 C 24.648438 0.53125 22.039062 1.03125 19 1.03125 Z M 23.65625 -7.734375 C 25.488281 -7.734375 27.160156 -8.046875 28.671875 -8.671875 C 30.191406 -9.304688 31.554688 -10.226562 32.765625 -11.4375 L 32.765625 -19.171875 C 31.785156 -19.691406 30.625 -20.132812 29.28125 -20.5 C 27.9375 -20.875 26.40625 -21.0625 24.6875 -21.0625 C 23.019531 -21.0625 21.5 -20.800781 20.125 -20.28125 C 18.75 -19.769531 17.660156 -19.015625 16.859375 -18.015625 C 16.054688 -17.015625 15.65625 -15.796875 15.65625 -14.359375 C 15.65625 -12.984375 16.023438 -11.789062 16.765625 -10.78125 C 17.515625 -9.78125 18.503906 -9.019531 19.734375 -8.5 C 20.972656 -7.988281 22.28125 -7.734375 23.65625 -7.734375 Z M 23.65625 -7.734375 "/></g></g></g><g fill="#2f5e62" fill-opacity="1"><g transform="translate(172.945683, 77.249998)"><g><path d="M 5.59375 0 L 5.59375 -60.375 L 19.171875 -60.375 L 19.171875 -36.546875 L 44.375 -36.546875 L 44.375 -60.375 L 57.875 -60.375 L 57.875 0 L 44.375 0 L 44.375 -24.421875 L 19.171875 -24.421875 L 19.171875 0 Z M 5.59375 0 "/></g></g></g><g fill="#2f5e62" fill-opacity="1"><g transform="translate(236.493886, 77.249998)"><g><path d="M 5.078125 0 L 5.078125 -44.8125 L 18.234375 -44.8125 L 18.234375 0 Z M 11.53125 -50.21875 C 9.34375 -50.21875 7.488281 -50.847656 5.96875 -52.109375 C 4.457031 -53.378906 3.703125 -55.160156 3.703125 -57.453125 C 3.703125 -59.796875 4.457031 -61.597656 5.96875 -62.859375 C 7.488281 -64.128906 9.34375 -64.765625 11.53125 -64.765625 C 13.757812 -64.765625 15.644531 -64.144531 17.1875 -62.90625 C 18.738281 -61.675781 19.515625 -59.859375 19.515625 -57.453125 C 19.515625 -55.160156 18.738281 -53.378906 17.1875 -52.109375 C 15.644531 -50.847656 13.757812 -50.21875 11.53125 -50.21875 Z M 11.53125 -50.21875 "/></g></g></g><g fill="#2f5e62" fill-opacity="1"><g transform="translate(259.711773, 77.249998)"><g><path d="M 23.484375 0.953125 C 19.234375 0.953125 15.890625 -0.222656 13.453125 -2.578125 C 11.015625 -4.929688 9.796875 -8.429688 9.796875 -13.078125 L 9.796875 -34.0625 L 1.03125 -34.0625 L 22.96875 -59.171875 L 22.96875 -44.8125 L 33.890625 -44.8125 L 33.890625 -34.0625 L 22.96875 -34.0625 L 22.96875 -14.96875 C 22.96875 -13.476562 23.3125 -12.328125 24 -11.515625 C 24.6875 -10.710938 25.742188 -10.3125 27.171875 -10.3125 C 28.085938 -10.3125 28.960938 -10.425781 29.796875 -10.65625 C 30.628906 -10.894531 31.503906 -11.210938 32.421875 -11.609375 L 32.421875 -1.125 C 31.210938 -0.488281 29.863281 0.015625 28.375 0.390625 C 26.882812 0.765625 25.253906 0.953125 23.484375 0.953125 Z M 23.484375 0.953125 "/></g></g></g></svg>