<svg xmlns="http://www.w3.org/2000/svg" xmlns:xlink="http://www.w3.org/1999/xlink" width="400" zoomAndPan="magnify" viewBox="0 0 300 89.999999" height="120" preserveAspectRatio="xMidYMid meet" version="1.0"><defs><g/></defs><g fill="#ffffff" fill-opacity="1"><g transform="translate(7.588866, 61.299996)"><g><path d="M 18.4375 0 L -1.625 -47.84375 L 10.671875 -47.84375 L 22.734375 -16.40625 L 34.796875 -47.84375 L 47.09375 -47.84375 L 27.03125 0 Z M 18.4375 0 "/></g></g></g><g fill="#ffffff" fill-opacity="1"><g transform="translate(52.477856, 61.299996)"><g><path d="M 4.46875 -46.34375 C 5.664062 -47.539062 7.09375 -48.140625 8.75 -48.140625 C 10.414062 -48.140625 11.847656 -47.539062 13.046875 -46.34375 C 14.242188 -45.144531 14.84375 -43.710938 14.84375 -42.046875 C 14.84375 -40.390625 14.242188 -38.957031 13.046875 -37.75 C 11.847656 -36.550781 10.414062 -35.953125 8.75 -35.953125 C 7.09375 -35.953125 5.664062 -36.550781 4.46875 -37.75 C 3.269531 -38.957031 2.671875 -40.390625 2.671875 -42.046875 C 2.671875 -43.710938 3.269531 -45.144531 4.46875 -46.34375 Z M 3.484375 -29.75 L 3.484375 0 L 13.75 0 L 13.75 -29.75 Z M 3.484375 -29.75 "/></g></g></g><g fill="#ffffff" fill-opacity="1"><g transform="translate(69.412696, 61.299996)"><g><path d="M 3.484375 0 L 3.484375 -29.75 L 13.75 -29.75 L 13.75 -25.46875 L 13.859375 -25.46875 C 13.941406 -25.613281 14.066406 -25.800781 14.234375 -26.03125 C 14.410156 -26.269531 14.785156 -26.675781 15.359375 -27.25 C 15.941406 -27.832031 16.5625 -28.351562 17.21875 -28.8125 C 17.882812 -29.28125 18.738281 -29.695312 19.78125 -30.0625 C 20.820312 -30.4375 21.882812 -30.625 22.96875 -30.625 C 24.09375 -30.625 25.191406 -30.46875 26.265625 -30.15625 C 27.347656 -29.851562 28.144531 -29.546875 28.65625 -29.234375 L 29.46875 -28.765625 L 25.171875 -20.0625 C 23.898438 -21.144531 22.125 -21.6875 19.84375 -21.6875 C 18.601562 -21.6875 17.535156 -21.414062 16.640625 -20.875 C 15.753906 -20.332031 15.125 -19.675781 14.75 -18.90625 C 14.382812 -18.132812 14.125 -17.476562 13.96875 -16.9375 C 13.820312 -16.394531 13.75 -15.96875 13.75 -15.65625 L 13.75 0 Z M 3.484375 0 "/></g></g></g><g fill="#ffffff" fill-opacity="1"><g transform="translate(97.250802, 61.299996)"><g><path d="M 5.5 -3.671875 C 2.71875 -6.710938 1.328125 -10.4375 1.328125 -14.84375 C 1.328125 -19.25 2.71875 -22.976562 5.5 -26.03125 C 8.289062 -29.09375 11.832031 -30.625 16.125 -30.625 C 20.070312 -30.625 23.320312 -29.382812 25.875 -26.90625 L 25.875 -29.75 L 36.140625 -29.75 L 36.140625 0 L 25.984375 0 L 25.984375 -3.359375 L 25.875 -3.359375 C 23.320312 -0.535156 20.070312 0.875 16.125 0.875 C 11.832031 0.875 8.289062 -0.640625 5.5 -3.671875 Z M 14.234375 -19.890625 C 12.898438 -18.578125 12.234375 -16.894531 12.234375 -14.84375 C 12.234375 -12.800781 12.867188 -11.128906 14.140625 -9.828125 C 15.421875 -8.535156 17.109375 -7.890625 19.203125 -7.890625 C 21.210938 -7.890625 22.863281 -8.546875 24.15625 -9.859375 C 25.445312 -11.171875 26.09375 -12.832031 26.09375 -14.84375 C 26.09375 -16.894531 25.425781 -18.578125 24.09375 -19.890625 C 22.757812 -21.203125 21.128906 -21.859375 19.203125 -21.859375 C 17.222656 -21.859375 15.566406 -21.203125 14.234375 -19.890625 Z M 14.234375 -19.890625 "/></g></g></g><g fill="#ffffff" fill-opacity="1"><g transform="translate(136.28218, 61.299996)"><g><path d="M 14.390625 -19.203125 L 14.390625 0 L 3.484375 0 L 3.484375 -47.84375 L 14.390625 -47.84375 L 14.390625 -28.765625 L 29.8125 -28.765625 L 29.8125 -47.84375 L 40.71875 -47.84375 L 40.71875 0 L 29.8125 0 L 29.8125 -19.203125 Z M 14.390625 -19.203125 "/></g></g></g><g fill="#ffffff" fill-opacity="1"><g transform="translate(179.895245, 61.299996)"><g><path d="M 4.46875 -46.34375 C 5.664062 -47.539062 7.09375 -48.140625 8.75 -48.140625 C 10.414062 -48.140625 11.847656 -47.539062 13.046875 -46.34375 C 14.242188 -45.144531 14.84375 -43.710938 14.84375 -42.046875 C 14.84375 -40.390625 14.242188 -38.957031 13.046875 -37.75 C 11.847656 -36.550781 10.414062 -35.953125 8.75 -35.953125 C 7.09375 -35.953125 5.664062 -36.550781 4.46875 -37.75 C 3.269531 -38.957031 2.671875 -40.390625 2.671875 -42.046875 C 2.671875 -43.710938 3.269531 -45.144531 4.46875 -46.34375 Z M 3.484375 -29.75 L 3.484375 0 L 13.75 0 L 13.75 -29.75 Z M 3.484375 -29.75 "/></g></g></g><g fill="#ffffff" fill-opacity="1"><g transform="translate(196.830086, 61.299996)"><g><path d="M 5.21875 -29.75 L 5.21875 -40.828125 L 15.484375 -40.828125 L 15.484375 -29.75 L 21.75 -29.75 L 21.75 -21.921875 L 15.484375 -21.921875 L 15.484375 -12.46875 C 15.484375 -9.726562 16.257812 -8.359375 17.8125 -8.359375 C 18.195312 -8.359375 18.597656 -8.429688 19.015625 -8.578125 C 19.441406 -8.734375 19.773438 -8.890625 20.015625 -9.046875 L 20.359375 -9.28125 L 22.90625 -0.984375 C 20.707031 0.253906 18.195312 0.875 15.375 0.875 C 13.4375 0.875 11.769531 0.535156 10.375 -0.140625 C 8.988281 -0.816406 7.9375 -1.722656 7.21875 -2.859375 C 6.5 -4.003906 5.984375 -5.207031 5.671875 -6.46875 C 5.367188 -7.726562 5.21875 -9.070312 5.21875 -10.5 L 5.21875 -21.921875 L 0.921875 -21.921875 L 0.921875 -29.75 Z M 5.21875 -29.75 "/></g></g></g><g fill="#2bd367" fill-opacity="1"><g transform="translate(219.159167, 61.299996)"><g><path d="M 10.09375 -12.40625 C 11.945312 -12.40625 13.519531 -11.757812 14.8125 -10.46875 C 16.113281 -9.175781 16.765625 -7.597656 16.765625 -5.734375 C 16.765625 -3.921875 16.113281 -2.363281 14.8125 -1.0625 C 13.519531 0.226562 11.945312 0.875 10.09375 0.875 C 8.269531 0.875 6.710938 0.226562 5.421875 -1.0625 C 4.128906 -2.363281 3.484375 -3.921875 3.484375 -5.734375 C 3.484375 -7.597656 4.128906 -9.175781 5.421875 -10.46875 C 6.710938 -11.757812 8.269531 -12.40625 10.09375 -12.40625 Z M 10.09375 -12.40625 "/></g></g></g><g fill="#2bd367" fill-opacity="1"><g transform="translate(238.819829, 61.299996)"><g><path d="M 5.5 -3.671875 C 2.71875 -6.710938 1.328125 -10.4375 1.328125 -14.84375 C 1.328125 -19.25 2.71875 -22.976562 5.5 -26.03125 C 8.289062 -29.09375 11.832031 -30.625 16.125 -30.625 C 20.070312 -30.625 23.320312 -29.382812 25.875 -26.90625 L 25.875 -29.75 L 36.140625 -29.75 L 36.140625 0 L 25.984375 0 L 25.984375 -3.359375 L 25.875 -3.359375 C 23.320312 -0.535156 20.070312 0.875 16.125 0.875 C 11.832031 0.875 8.289062 -0.640625 5.5 -3.671875 Z M 14.234375 -19.890625 C 12.898438 -18.578125 12.234375 -16.894531 12.234375 -14.84375 C 12.234375 -12.800781 12.867188 -11.128906 14.140625 -9.828125 C 15.421875 -8.535156 17.109375 -7.890625 19.203125 -7.890625 C 21.210938 -7.890625 22.863281 -8.546875 24.15625 -9.859375 C 25.445312 -11.171875 26.09375 -12.832031 26.09375 -14.84375 C 26.09375 -16.894531 25.425781 -18.578125 24.09375 -19.890625 C 22.757812 -21.203125 21.128906 -21.859375 19.203125 -21.859375 C 17.222656 -21.859375 15.566406 -21.203125 14.234375 -19.890625 Z M 14.234375 -19.890625 "/></g></g></g><g fill="#2bd367" fill-opacity="1"><g transform="translate(277.851207, 61.299996)"><g><path d="M 4.46875 -46.34375 C 5.664062 -47.539062 7.09375 -48.140625 8.75 -48.140625 C 10.414062 -48.140625 11.847656 -47.539062 13.046875 -46.34375 C 14.242188 -45.144531 14.84375 -43.710938 14.84375 -42.046875 C 14.84375 -40.390625 14.242188 -38.957031 13.046875 -37.75 C 11.847656 -36.550781 10.414062 -35.953125 8.75 -35.953125 C 7.09375 -35.953125 5.664062 -36.550781 4.46875 -37.75 C 3.269531 -38.957031 2.671875 -40.390625 2.671875 -42.046875 C 2.671875 -43.710938 3.269531 -45.144531 4.46875 -46.34375 Z M 3.484375 -29.75 L 3.484375 0 L 13.75 0 L 13.75 -29.75 Z M 3.484375 -29.75 "/></g></g></g></svg>